#!OML:ASF F:\VICON\USERDATA\INSTALL\rory3\rory3.ASF
:FULLY-SPECIFIED
:DEGREES
572
root 1.87035 16.4074 -12.5425 21.9317 7.89615 -10.1825
lowerback -10.1002 2.35036 4.24046
upperback -11.8007 3.48196 9.25626
thorax -7.36197 1.96549 7.72937
lowerneck -5.19649 -6.38676 -2.58367
upperneck 30.0069 -7.52395 -4.24404
head 10.3593 -4.17449 -1.82414
rclavicle 3.57812e-015 -8.5875e-014
rhumerus -3.96132 -43.1887 2.19639
rradius 11.1105
rwrist 84.9569
rhand 20.6125 -5.73416
rfingers 7.12502
rthumb 45.1052 -29.1922
lclavicle 3.57812e-015 -8.5875e-014
lhumerus -24.5569 2.83054 1.09277
lradius 16.371
lwrist -54.3791
lhand 12.3059 31.5025
lfingers 7.12502
lthumb 37.31 57.4862
rfemur -37.4414 15.8632 5.37771
rtibia 42.2571
rfoot -72.6551 -13.4385
rtoes 58.8272
lfemur -36.1352 -5.01451 -24.8677
ltibia 37.2722
lfoot -49.7453 26.7372
ltoes 27.1295
573
root 1.92729 16.3974 -12.5619 21.2543 9.29701 -10.5931
lowerback -9.42145 2.14215 5.24273
upperback -11.5626 3.23064 9.63161
thorax -7.42984 1.77535 7.5404
lowerneck -5.49916 -6.44844 -2.92932
upperneck 29.7463 -7.47469 -4.4925
head 10.3289 -4.21536 -1.85317
rclavicle -3.12092e-014 -5.88403e-014
rhumerus -0.12343 -38.515 0.895281
rradius 11.1155
rwrist 80.3708
rhand 20.9485 -6.29978
rfingers 7.12502
rthumb 45.4176 -29.6329
lclavicle -3.12092e-014 -5.88403e-014
lhumerus -22.1825 1.19969 0.916917
lradius 16.7003
lwrist -52.9326
lhand 12.1417 31.6098
lfingers 7.12502
lthumb 37.1548 57.6341
rfemur -38.4408 15.503 5.84268
rtibia 42.4098
rfoot -73.2397 -13.3725
rtoes 58.3698
lfemur -35.5792 -5.17462 -24.5389
ltibia 37.294
lfoot -48.8387 26.6746
ltoes 26.6803
574
root 1.9493 16.3903 -12.5646 20.993 9.76755 -10.0838
lowerback -9.26674 2.13426 4.62259
upperback -11.5275 3.26822 9.60063
thorax -7.50855 1.84675 7.85425
lowerneck -4.81519 -6.6659 -3.04167
upperneck 29.3276 -7.75331 -4.63092
head 10.0391 -4.36555 -1.86322
rclavicle 2.44505e-014 1.06549e-013
rhumerus 2.11138 -33.7517 1.14823
rradius 11.1502
rwrist 76.7992
rhand 19.7625 -5.18329
rfingers 7.12502
rthumb 44.3137 -28.9482
lclavicle 2.44505e-014 1.06549e-013
lhumerus -19.2076 -1.45048 0.741977
lradius 17.1698
lwrist -50.6912
lhand 11.6408 31.8719
lfingers 7.12502
lthumb 36.6808 58.0182
rfemur -40.1842 17.5907 4.46553
rtibia 42.6176
rfoot -75.3207 -10.6522
rtoes 59.0701
lfemur -35.2475 -5.28104 -25.1525
ltibia 37.2545
lfoot -48.3891 26.6828
ltoes 26.7121
575
root 1.98636 16.3794 -12.571 20.5837 10.6476 -9.84437
lowerback -8.84166 2.00123 4.63433
upperback -11.4377 3.13763 9.67434
thorax -7.63748 1.78482 7.91072
lowerneck -4.75557 -6.81489 -3.13037
upperneck 29.085 -7.87407 -4.92586
head 9.92873 -4.45995 -1.94993
rclavicle 2.82274e-014 -3.18055e-014
rhumerus 4.49519 -27.1724 1.63481
rradius 11.3345
rwrist 70.5466
rhand 21.646 -6.78203
rfingers 7.12502
rthumb 46.0653 -29.8493
lclavicle 2.82274e-014 -3.18055e-014
lhumerus -16.5242 -2.18161 -0.0995878
lradius 17.4126
lwrist -50.2902
lhand 11.3808 32.0537
lfingers 7.12502
lthumb 36.4348 58.2622
rfemur -41.6238 18.4286 3.79526
rtibia 42.7856
rfoot -76.5263 -9.29691
rtoes 59.3417
lfemur -34.804 -5.20923 -25.5664
ltibia 37.2404
lfoot -47.6242 26.615
ltoes 25.7847
576
root 2.0257 16.3666 -12.585 20.1837 11.6043 -9.90131
lowerback -8.30603 1.90947 4.99019
upperback -11.4348 3.08029 9.81103
thorax -7.92914 1.73797 7.84597
lowerneck -4.72921 -6.93362 -3.12908
upperneck 28.9265 -7.94906 -5.27709
head 9.84837 -4.52976 -2.0703
rclavicle -1.92821e-014 -3.49861e-014
rhumerus 6.68587 -20.0015 2.74004
rradius 11.6485
rwrist 63.1808
rhand 21.9765 -7.71764
rfingers 7.12502
rthumb 46.3717 -30.6558
lclavicle -1.92821e-014 -3.49861e-014
lhumerus -13.8142 -2.77476 -1.00329
lradius 17.4991
lwrist -50.3092
lhand 10.9225 31.8779
lfingers 7.12502
lthumb 36.0008 58.1942
rfemur -43.2365 18.931 3.48664
rtibia 43.0005
rfoot -77.2923 -8.58628
rtoes 59.5447
lfemur -34.4758 -4.93529 -25.7309
ltibia 37.1467
lfoot -46.2737 27.0204
ltoes 23.7695
577
root 2.05392 16.3533 -12.5877 19.4444 12.8063 -9.69085
lowerback -7.69169 1.64622 4.99203
upperback -11.1988 2.78571 9.9723
thorax -7.99071 1.59659 7.99897
lowerneck -4.72997 -7.03947 -3.22241
upperneck 28.5952 -8.00058 -5.60323
head 9.71732 -4.59457 -2.15801
rclavicle -1.11319e-014 3.81667e-014
rhumerus 9.02143 -16.948 3.69061
rradius 11.6232
rwrist 60.6851
rhand 19.9513 -5.96197
rfingers 7.12502
rthumb 44.4897 -29.6598
lclavicle -1.11319e-014 3.81667e-014
lhumerus -11.1374 -3.5726 -1.76165
lradius 17.6498
lwrist -49.7145
lhand 10.52 31.6287
lfingers 7.12502
lthumb 35.6194 58.0379
rfemur -44.4107 20.7939 2.64406
rtibia 43.1646
rfoot -79.414 -6.86263
rtoes 59.2471
lfemur -33.6447 -4.89539 -26.0447
ltibia 37.0707
lfoot -45.0892 27.0325
ltoes 22.0711
